<svg viewBox="0 0 16 13" xmlns="http://www.w3.org/2000/svg">
    <path d="M14.4 13H1.6A1.613 1.613 0 0 1 0 11.375v-9.75A1.612 1.612 0 0 1 1.6 0h12.8A1.612 1.612 0 0 1 16 1.625v9.75c.007.89-.71 1.618-1.6 1.625zm-.707-10a.787.787 0 0 0-1.117-.112L8.634 6.234c-.399.21-.875.21-1.274 0L3.43 2.899a.787.787 0 0 0-1.115.112.807.807 0 0 0 .111 1.127L4.12 5.576c.232.26.377.585.414.931-.001.06-.007.12-.017.178L2.811 9.001a.85.85 0 0 0 .177 1.145.751.751 0 0 0 1.085-.189l2-2.721 1.142.969a.989.989 0 0 0 .763.476c.306-.027.584-.19.758-.444a.273.273 0 0 0 .023-.014l1.161-.986 2 2.72a.748.748 0 0 0 1.083.189.851.851 0 0 0 .177-1.145l-1.7-2.316a1.306 1.306 0 0 1-.017-.178c.036-.339.175-.659.4-.915l1.72-1.46A.809.809 0 0 0 13.693 3z"
          fill-rule="evenodd"/>
</svg>