<svg xmlns="http://www.w3.org/2000/svg" version="1.1"
     xmlns:xlink="http://www.w3.org/1999/xlink" viewBox="0 0 16 16">
    <g id="v3" fill-rule="evenodd" fill="none">
        <g id="mail_with_exit" transform="translate(-415 -157)">
            <g id="left-column" transform="translate(153 85)">
                <g id="mail">
                    <g id="login_auth" transform="translate(0 56)">
                        <g id="header" transform="translate(20 12)">
                            <g id="exit" transform="translate(242 4)">
                                <rect id="BG" y="0" x="0" height="16" width="16"></rect>
                                <path id="P_Exit_16x16" fill="#A6A6A6"
                                      d="m16 11.489c0 1.768-1.599 2.568-1.599 2.568l-2.684 1.791s0 0.001-0.001 0.001c-0.361 0.195-0.799 0.186-1.151-0.025-0.353-0.211-0.568-0.591-0.567-1.002 0.001-0.097 0.001-0.155 0.001-0.155v-0.667h-2.999c-1.104 0-2-0.896-2-2v-2c0-0.552 0.448-1 1-1s1 0.448 1 1v1.403c0 0.329 0.267 0.597 0.597 0.597h2.402l0.001-3v-3.308c0-1.796 1.503-2.463 1.503-2.463l2.228-1.131c-0.094-0.062-0.207-0.098-0.328-0.098h-5.806c-0.33 0-0.597 0.268-0.597 0.597v1.403c0 0.552-0.448 1-1 1s-1-0.448-1-1v-2c0-1.104 0.896-2 2-2h7c1.104 0 2 0.896 2 2v9.489zm-15.693-5.211l1.986-1.985c0.39-0.39 1.024-0.39 1.414 0s0.39 1.024 0 1.414l-0.293 0.293h3.586c0.552 0 1 0.448 1 1s-0.448 1-1 1h-3.586l0.293 0.293c0.39 0.39 0.39 1.024 0 1.414s-1.024 0.39-1.414 0l-1.986-1.985c-0.005-0.005-0.009-0.01-0.014-0.015-0.149-0.148-0.241-0.331-0.276-0.523v-0.001l-0.001-0.001v-0.003-0.001-0.001l-0.001-0.003v-0.001-0.002l-0.001-0.003v-0.001c-0.006-0.033-0.01-0.066-0.012-0.101v-0.002-0.003-0.001-0.002-0.003l-0.001-0.001v-0.001-0.002-0.001-0.002-0.001-0.002-0.001-0.002-0.002-0.001-0.001-0.002-0.002-0.002h-0.001l1.2317e-16 -0.002v-0.003-0.001-0.001-0.001-0.004-0.001-0.001-0.005-0.019-0.002-0.004-0.001-0.002-0.003-0.001-0.003-0.002-0.001-0.001-0.002-0.002-0.001l0.001-0.001v-0.003-0.001-0.001-0.002-0.003c0.002-0.059 0.01-0.117 0.022-0.172 0.039-0.181 0.129-0.353 0.27-0.493 0.005-0.005 0.009-0.01 0.014-0.015z"></path>
                            </g>
                        </g>
                    </g>
                </g>
            </g>
        </g>
    </g>
</svg>