<svg viewBox="0 0 100 100" xmlns="http://www.w3.org/2000/svg" width="0" height="0">
    <path d="M48.45 15.78L79.71 7.4a3.45 3.45 0 014.22 2.45l4.45 16.62 2 7.53 9.48 35.34a3.46 3.46 0 01-2.43 4.23l-19 5.08z"
          fill="#e26b00"/>
    <path d="M19.45 9.19a3.36 3.36 0 012.76-.44l66.62 17.84a3.45 3.45 0 012.43 4.22L73.42 97.43a3.45 3.45 0 01-4.23 2.43L2.57 82a3.46 3.46 0 01-2.43-4.2l14.35-53.56z"
          fill="#ff8200"/>
    <g fill="#edeada">
        <path d="M78 38.8a1.61 1.61 0 01-.44-.06L53 32.17a1.72 1.72 0 01.9-3.33l24.52 6.58a1.71 1.71 0 011.26 1.89 1.73 1.73 0 01-1.7 1.5zM75.3 48.8a1.63 1.63 0 01-.45-.06l-16.67-4.46a1.72 1.72 0 01-.78-2.89 1.69 1.69 0 011.67-.39l16.67 4.46a1.72 1.72 0 01-.44 3.39zM72.62 58.8a1.61 1.61 0 01-.44-.06l-20.74-5.57a1.72 1.72 0 11.89-3.33l20.74 5.57a1.72 1.72 0 01-.45 3.39zM21.65 55.84a1.74 1.74 0 01-.45-.06l-5-1.34a1.72 1.72 0 11.89-3.33l5 1.34a1.72 1.72 0 01-.45 3.39zM69.94 68.78a1.61 1.61 0 01-.44-.06L31.19 58.45a1.72 1.72 0 11.9-3.33l38.3 10.26a1.72 1.72 0 01-.45 3.39zM19 65.83a1.74 1.74 0 01-.45-.06l-5-1.33a1.73 1.73 0 01.9-3.34l5 1.34a1.72 1.72 0 01-.45 3.39zM67.27 78.77a1.74 1.74 0 01-.45-.06L28.51 68.45a1.72 1.72 0 01.9-3.33l38.3 10.26a1.72 1.72 0 01-.44 3.39z"/>
    </g>
    <path d="M50 52.14l-11.41-3.79 9.76-9.76L52.14 50A1.73 1.73 0 0150 52.14z" fill="#bdc3c7"/>
    <path d="M16.66 6.9L6.9 16.66 2 11.78A6.9 6.9 0 0111.78 2z" fill="#fb7b76"/>
    <path d="M48.35 38.59l-3.66 3.65-2.43 2.43-3.65 3.66-26.83-26.79 3.67-3.66 2.43-2.43 3.66-3.67z"
          fill="#f4006e"/>
    <path d="M6.9 16.66l9.76-9.76 4.88 4.88-9.76 9.76z" fill="#bdc3c7"/>
    <path d="M24 24a1.76 1.76 0 01-1.22.5 1.7 1.7 0 01-1.21-.5l-6.09-6.09 2.43-2.43L24 21.54A1.72 1.72 0 0124 24zM44.69 42.24l-2.43 2.43L26.4 28.85a1.73 1.73 0 112.45-2.45z"
          fill="#c03a2b"/>
</svg>