<svg viewBox="0 0 100 100" xmlns="http://www.w3.org/2000/svg" width="0" height="0">
    <path d="M100 32.76L59.53 66.38l-1.84 1.54a12 12 0 01-15.38 0l-1.84-1.54L0 32.76l15.52-11L34.07 8.62l8.24-5.84a12 12 0 0115.38 0l8.24 5.84 18.55 13.14z"
          fill="#e26b00"/>
    <path d="M84.48 81V10.35a1.84 1.84 0 00-1.91-1.73H17.43a1.84 1.84 0 00-1.91 1.73V81z" fill="#edeada"/>
    <path d="M52.14 56.88a37.92 37.92 0 01-11.39-1.79 17.2 17.2 0 01-11.44-13c-1.31-6.3 1.06-12.91 6.49-18.18.58-.57 1.18-1.11 1.81-1.63a22 22 0 0120-4.32 16.77 16.77 0 0111.66 15.41 15.9 15.9 0 01-3.71 11.22A8.72 8.72 0 0157 47.72a5 5 0 01-3.17-2.2 4.68 4.68 0 01-.45-3.64c1.51-5.7 3-14.36 3.05-14.44a1.73 1.73 0 012.81-1 1.73 1.73 0 01.62 1.56c-.06.37-1.57 8.9-3.12 14.73a1.27 1.27 0 00.08 1 1.52 1.52 0 001 .61 5.34 5.34 0 005.14-2 12.4 12.4 0 002.87-8.77 13.36 13.36 0 00-9.24-12.3 18.44 18.44 0 00-16.78 3.69c-.55.46-1.09.94-1.61 1.44-2.68 2.61-7 8-5.52 15a14 14 0 009.11 10.4c8.09 2.58 19.71 2.89 25.83-4.72a1.73 1.73 0 012.69 2.16c-4.53 5.63-11.42 7.64-18.17 7.64z"
          fill="#f4006e"/>
    <path d="M46.23 47.94a7.84 7.84 0 01-5-1.69c-3.34-2.65-3.43-7.25-2.5-10.38a15.81 15.81 0 011.25-3 14.12 14.12 0 015.92-6.15 8.16 8.16 0 019.59 1.55A12.88 12.88 0 0158.24 33 1.73 1.73 0 0155 34.15a9.58 9.58 0 00-2-3.51 4.68 4.68 0 00-5.58-.83A10.76 10.76 0 0043 34.52a12.28 12.28 0 00-1 2.34c-.67 2.26-.52 5.22 1.33 6.7 2 1.62 5.43.94 7.35-.72a19.17 19.17 0 003.64-4.43 1.73 1.73 0 011.53-.84 1.75 1.75 0 011.48.92 1.72 1.72 0 01-.08 1.74A23 23 0 0153 45.45a10.6 10.6 0 01-6.74 2.49z"
          fill="#f4006e"/>
    <path d="M100 32.76v63.8a3.38 3.38 0 01-1.12 2.51 3.28 3.28 0 01-2.33.93H3.45a3.28 3.28 0 01-2.33-.93A3.38 3.38 0 010 96.56v-63.8l40.47 33.62 1.84 1.54a12 12 0 0015.38 0l1.84-1.54z"
          fill="#ff8200"/>
    <path d="M98.88 99.07a3.28 3.28 0 01-2.33.93H3.45a3.28 3.28 0 01-2.33-.93l39.35-32.69 1.84 1.54a12 12 0 0015.38 0l1.84-1.54z"
          fill="#e26b00"/>
</svg>