<svg viewBox="0 0 100 100" xmlns="http://www.w3.org/2000/svg" width="0" height="0">
    <path d="M99 22.22l-6.58-2V19a19.2 19.2 0 00-1.73-7.89A19 19 0 0054.39 19v1.94l-3.77 1.5a1.56 1.56 0 01-1.27 0L28.21 14a1.43 1.43 0 00-.58-.12 1.94 1.94 0 00-.59 0L1.19 22.22A1.73 1.73 0 000 24v73.67a1.71 1.71 0 00.72 1.39 1.7 1.7 0 001.54.25l24.78-8a1.94 1.94 0 01.59 0 2.34 2.34 0 01.58.14l21.22 8.46a1.77 1.77 0 001.28 0l21.22-8.6a1.88 1.88 0 01.58 0 1.94 1.94 0 01.59 0l24.78 8a1.73 1.73 0 002.26-1.64V24A1.73 1.73 0 0099 22.22z"
          fill="#ff8200"/>
    <path d="M72.51 60.2v31.08a2.34 2.34 0 00-.58.14l-21.22 8.46a1.73 1.73 0 01-.64 0V22.57a2 2 0 00.64-.14l3.76-1.5a38.87 38.87 0 006 18.55c.15.26.31.49.48.75a49.2 49.2 0 006 7.49c-2.85 1.17-4.74 3.23-4.74 5.58 0 3.64 4.55 6.61 10.35 6.9zM27.63 13.83v77.45a1.94 1.94 0 00-.59 0l-24.78 8a1.7 1.7 0 01-1.54-.25A1.71 1.71 0 010 97.67V24a1.73 1.73 0 011.19-1.73l25.9-8.37a2 2 0 01.54 0z"
          fill="#ffae64"/>
    <path d="M92.4 19v1.18a38.46 38.46 0 01-6.07 19.31c-.14.26-.31.49-.47.75a48.36 48.36 0 01-6 7.52 43.66 43.66 0 01-6.44 5.55 44.18 44.18 0 01-6.47-5.67 48 48 0 01-6-7.49c-.18-.26-.33-.48-.49-.74a39 39 0 01-6-18.47V19a19 19 0 0138 0z"
          fill="#f4006e"/>
    <ellipse cx="73.29" cy="18.77" fill="#fff" rx="11.96" ry="12.09"/>
    <path d="M41 80.06l3.59-5a1.7 1.7 0 00.28-1.79 1.72 1.72 0 00-3.1-.27l-2.92 4.08L35.93 73a1.73 1.73 0 00-2.32-.28 1.75 1.75 0 00-.48 2.28l3.59 5-3.59 5a1.73 1.73 0 00.4 2.4 1.78 1.78 0 001 .33 1.75 1.75 0 001.4-.73l2.92-4 2.92 4.07a1.75 1.75 0 001.39.73 1.84 1.84 0 001-.33 1.73 1.73 0 00.39-2.4zM15.07 33.44l3.6-5a1.72 1.72 0 00-1.2-2.84 1.71 1.71 0 00-1.6.84L13 30.47l-3-4.07a1.72 1.72 0 00-2.79 2l3.59 5-3.59 5a1.72 1.72 0 102.79 2l3-3.99 2.92 4.08a1.71 1.71 0 002.4.39 1.73 1.73 0 00.4-2.4z"
          fill="#f4006e"/>
    <path d="M84.6 53.3c0 3.81-5 6.9-11.22 6.9h-.87c-5.8-.27-10.35-3.24-10.35-6.9 0-2.35 1.89-4.41 4.78-5.67a44.18 44.18 0 006.47 5.67 44.43 44.43 0 006.46-5.63c2.87 1.24 4.73 3.3 4.73 5.63z"
          fill="#606060"/>
    <g fill="#f4006e">
        <path d="M13.81 53.3a1.73 1.73 0 01-1.72-1.73v-3.45a1.73 1.73 0 113.45 0v3.45a1.73 1.73 0 01-1.73 1.73zM13.81 63.66a1.73 1.73 0 01-1.72-1.73v-3.45a1.73 1.73 0 113.45 0v3.45a1.73 1.73 0 01-1.73 1.73zM13.81 74a1.72 1.72 0 01-1.72-1.72v-3.44a1.73 1.73 0 113.45 0v3.45A1.72 1.72 0 0113.81 74zM38 48.12a1.73 1.73 0 01-1.72-1.73v-3.45a1.73 1.73 0 113.45 0v3.45A1.73 1.73 0 0138 48.12zM38 58.48a1.73 1.73 0 01-1.72-1.73V53.3a1.73 1.73 0 113.45 0v3.45A1.73 1.73 0 0138 58.48zM38 68.84a1.73 1.73 0 01-1.72-1.73v-3.45a1.73 1.73 0 113.45 0v3.45A1.73 1.73 0 0138 68.84zM14 84.37h-.18a1.72 1.72 0 01-1.72-1.72v-3.46a1.73 1.73 0 013.45 0v1.13l1.17-.4a1.73 1.73 0 111.11 3.28l-3.28 1.17a1.69 1.69 0 01-.55 0zM24.17 80.92a1.73 1.73 0 01-1.64-1.17 1.8 1.8 0 01.09-1.33 1.75 1.75 0 011-.87l3.28-1.08a1.73 1.73 0 011.1 3.28l-3.26 1.17a2.62 2.62 0 01-.56 0zM38 37.76A1.72 1.72 0 0136.26 36v-3.42A1.73 1.73 0 0138 30.85h.18a1.76 1.76 0 01.55.09L42 32a1.73 1.73 0 01-1.1 3.28l-1.18-.4V36A1.72 1.72 0 0138 37.76z"/>
    </g>
    <path d="M73.29 32.58A13.81 13.81 0 1187 18.77a13.8 13.8 0 01-13.71 13.81zm0-24.17a10.36 10.36 0 1010.24 10.36A10.34 10.34 0 0073.29 8.41z"
          fill="#606060"/>
</svg>