<svg viewBox="0 0 100 100" xmlns="http://www.w3.org/2000/svg" width="0" height="0">
    <path d="M9.75 90L.18 35.69a12 12 0 0110.19-14.06l18.47-3.26-.5 71.63z" fill="#f4006e"/>
    <path d="M80.83 87.64a3.45 3.45 0 01-2.74 2.59l-54.36 9.59A12.1 12.1 0 019.57 88.44a12.32 12.32 0 019.68-12.31l15.23 4.27-13.73 2.43a5.19 5.19 0 00-3.93 7A5.32 5.32 0 0022.75 93l41.54-7.33z"
          fill="#af045a"/>
    <path d="M34.46 80.4l-13.71 2.43a5.19 5.19 0 00-3.93 7A5.32 5.32 0 0022.75 93l41.54-7.33z" fill="#edeada"/>
    <path d="M22 57.19l9.58-54.34a3.48 3.48 0 014-2.8l53.94 9.51A12.36 12.36 0 0199.89 22a12.11 12.11 0 01-.17 1.58L90.13 78z"
          fill="#ff8200"/>
    <path d="M78.24 18.05h-.3l-39.06-6.91a1.72 1.72 0 01.6-3.39l39.06 6.88a1.72 1.72 0 01-.3 3.42zM70 25.34a1.53 1.53 0 01-.3 0l-25.53-4.51a1.73 1.73 0 01.6-3.4l25.48 4.48a1.73 1.73 0 01-.3 3.43z"
          fill="#edeada"/>
    <path d="M99.89 22a10.47 10.47 0 01-.18 1.58L90.13 78l-13.3-4 7.71-43.7 1.83-10.31 1.86-10.65 1.29.22A12.37 12.37 0 0199.89 22z"
          fill="#e26b00"/>
    <path d="M79.93 63.9L26 54.4a3.05 3.05 0 00-.6-.06 3.45 3.45 0 00-.59 6.85l54.34 9.57a5.19 5.19 0 013.91 7 5.29 5.29 0 01-5.91 3.16L23 71.38a4.07 4.07 0 00-.61 0 3.45 3.45 0 00-.6 6.85l54.36 9.57a12.09 12.09 0 0014.17-11.42A12.38 12.38 0 0079.93 63.9z"
          fill="#e26b00"/>
    <path d="M83.05 77.76a5.29 5.29 0 01-5.91 3.16L23 71.38l1.8-10.19 54.34 9.57a5.19 5.19 0 013.91 7z"
          fill="#edeada"/>
</svg>