<svg viewBox="0 0 100 100" xmlns="http://www.w3.org/2000/svg" width="0" height="0">
    <path d="M8.93 100A8.81 8.81 0 010 91.38V51.72h17.86v39.66A8.81 8.81 0 018.93 100z" fill="#e26b00"/>
    <path d="M17.86 0H100v18.97H17.86z" fill="#cec9ae"/>
    <path d="M17.86 60.34v31A8.81 8.81 0 018.93 100h82.16a8.76 8.76 0 008.91-8.6v-69H17.86z" fill="#ff8200"/>
    <path d="M17.86 18.97H100v3.45H17.86z" fill="#f4f3ed"/>
    <path d="M28.58 27.86h21.43v23.47H28.58z" fill="#cec9ae"/>
    <g fill="#edeada">
        <path d="M86.21 31.31H58.62a1.73 1.73 0 010-3.45h27.59a1.73 1.73 0 010 3.45zM86.21 41.32H58.62a1.73 1.73 0 010-3.45h27.59a1.73 1.73 0 010 3.45zM86.21 51.33H58.62a1.72 1.72 0 110-3.44h27.59a1.72 1.72 0 110 3.44zM86.24 61.34h-56a1.72 1.72 0 010-3.44h56a1.72 1.72 0 010 3.44zM57.15 71.36H30.36a1.73 1.73 0 110-3.45h26.79a1.73 1.73 0 110 3.45zM57.15 81.37H30.36a1.73 1.73 0 110-3.45h26.79a1.73 1.73 0 110 3.45zM57.15 91.38H30.36a1.73 1.73 0 110-3.45h26.79a1.73 1.73 0 110 3.45z"/>
    </g>
    <path d="M67.24 67.91h20.69v23.8H67.24z" fill="#cec9ae"/>
    <path d="M31.19 6h48.27a3.44 3.44 0 013.45 3.4 3.45 3.45 0 01-3.45 3.45H31.19a3.46 3.46 0 01-3.45-3.45A3.45 3.45 0 0131.19 6z"
          fill="#606060"/>
</svg>