<svg viewBox="0 0 100 100" xmlns="http://www.w3.org/2000/svg" width="0" height="0">
    <path d="M35.12 78.4L20.2 86.54a14.14 14.14 0 00-2.39 1.7 50 50 0 0064.2.17 13.57 13.57 0 00-2.63-1.76l-16-8A6.09 6.09 0 0160 73.21v-6.27A23 23 0 0061.55 65a37 37 0 005-10 5 5 0 003.56-4.77v-6.7a5 5 0 00-1.67-3.71v-9.67s2-15-18.4-15-18.43 15-18.43 15v9.67a5 5 0 00-1.67 3.71v6.69a5 5 0 002.31 4.21 33.09 33.09 0 006 12.51v6.12a6.09 6.09 0 01-3.13 5.34z"
          fill="#edeada"/>
    <path d="M50.86 0a50 50 0 00-33 88.22 13 13 0 012.37-1.69l14.89-8.13a6.08 6.08 0 003.17-5.34v-6.12a33.19 33.19 0 01-6-12.51 5 5 0 01-2.31-4.21v-6.69a5 5 0 011.67-3.71v-9.67s-2-15.06 18.4-15.06S68.4 30.15 68.4 30.15v9.67a5 5 0 011.67 3.71v6.69A5 5 0 0166.51 55a36.72 36.72 0 01-5 10c-.55.77-1.06 1.43-1.51 1.94v6.27a6.1 6.1 0 003.37 5.45l16 8A13.06 13.06 0 0182 88.41 50 50 0 0050.86 0z"
          fill="#ff8200"/>
</svg>