<svg viewBox="0 0 100 100" xmlns="http://www.w3.org/2000/svg" width="0" height="0">
    <path d="M72.42 50h10.34v34.48H72.42z" fill="#606060"/>
    <path d="M58.63 41.38a20.69 20.69 0 10-19-28.94 20.69 20.69 0 10-19 28.94l19 5.17z" fill="#e26b00"/>
    <circle cx="20.7" cy="20.69" fill="#edeada" r="13.79"/>
    <circle cx="58.63" cy="20.69" fill="#edeada" r="13.79"/>
    <path d="M48.28 93.1h19a6.89 6.89 0 006.89-6.89V48.28a6.9 6.9 0 00-6.89-6.9h-55.2a6.9 6.9 0 00-6.9 6.9v37.93a6.89 6.89 0 006.9 6.89zM81 84.35l13.37 11.29A3.44 3.44 0 00100 93V41.25a3.44 3.44 0 00-5.63-2.67L81 49.87z"
          fill="#ff8200"/>
    <g fill="#606060">
        <rect height="15.52" rx="1.72" width="17.24" x="31.04" y="84.48"/>
        <path d="M15.52 51.73H63.8a3.45 3.45 0 013.45 3.44 3.45 3.45 0 01-3.45 3.45H15.52a3.44 3.44 0 01-3.44-3.45 3.44 3.44 0 013.44-3.44zM20.7 67.24h-8.62a1.73 1.73 0 110-3.45h8.62a1.73 1.73 0 010 3.45zM15.52 74.14h-3.44a1.73 1.73 0 110-3.45h3.44a1.73 1.73 0 110 3.45z"/>
    </g>
    <circle cx="20.7" cy="20.69" fill="#f4006e" r="5.17"/>
    <circle cx="58.63" cy="20.69" fill="#f4006e" r="5.17"/>
</svg>