<svg width="16" height="12" viewBox="0 0 16 12" fill="none" xmlns="http://www.w3.org/2000/svg">
    <path fill-rule="evenodd" clip-rule="evenodd"
          d="M8 12H3C1.344 12 0 10.656 0 9V3C0 1.344 1.344 0 3 0H8C9.656 0 11 1.344 11 3V3.938L14.355 1.236C14.53 1.089 14.755 1 15 1C15.552 1 16 1.448 16 2V10C16 10.552 15.552 11 15 11C14.747 11 14.515 10.906 14.339 10.75L11 8.061V9C11 10.656 9.656 12 8 12ZM3 8C3.552 8 4 8.448 4 9C4 9.552 3.552 10 3 10C2.448 10 2 9.552 2 9C2 8.448 2.448 8 3 8Z"></path>
</svg>