<svg viewBox="0 0 15 15" xmlns="http://www.w3.org/2000/svg">
    <title>Rounded_Rectangle_41_copy_6</title>
    <path d="M14.553 4.396l-1.437 1.436-3.951-3.95L10.602.448a1.523 1.523 0 0 1 2.155 0l1.796 1.795a1.522 1.522 0 0 1 0 2.154zM12.04 6.909l-6.826 6.823a1.97 1.97 0 0 1-1.257.536l-3.233.718a.536.536 0 0 1-.536-.18.604.604 0 0 1-.179-.535l.718-3.231c.023-.47.213-.916.536-1.258L8.088 2.96l3.951 3.95zm-7.635 4.938L3.147 10.59a.38.38 0 0 0-.536 0 .361.361 0 0 0-.072.108l-.018-.019-.468 1.834a.31.31 0 0 0 .107.322c.073.1.203.143.322.107l1.833-.469-.018-.018a.37.37 0 0 0 .107-.072.382.382 0 0 0 0-.536z"
          fill-rule="evenodd"/>
</svg>