<svg data-name="Layer 1" xmlns="http://www.w3.org/2000/svg" viewBox="0 0 44 44"><path d="M30.75 37.89h-17.5a7.8 7.8 0 0 1-7.8-7.79V12.6a7.8 7.8 0 0 1 7.8-7.8h17.5a7.8 7.8 0 0 1 7.8 7.8v17.5a7.79 7.79 0 0 1-7.8 7.79z" fill="#fff"/><path d="M38.55 15.84H5.45V30.1a7.8 7.8 0 0 0 7.8 7.79h17.5a7.8 7.8 0 0 0 7.8-7.79V15.84z" fill="#fc0"/><path fill="#ffae1a" d="M5.45 15.84l3.65-5.53h25.8l3.65 5.53H5.45z"/><path fill="#fffcf3" d="M19.64 15.82h4.73v5.53h-4.73z"/><path fill="#e8ddcf" d="M24.36 15.82h-4.72l.32-5.51h4.08l.32 5.51z"/><path d="M12.86 29.42h.4l1.11-4.11.25-1h.05c0 .37-.08.75-.08 1.1v5.08h.68v-7.42h-.82l-1.17 4.36c0 .19-.14.58-.18.86a5.77 5.77 0 0 0-.16-.86l-1.16-4.36h-.84v7.39h.64v-5.08c0-.38 0-.75-.06-1.1.06.35.15.67.25 1zm4.54.64c-.43 0-.7-.37-.7-1 0-.84.43-1.24 1.15-1.24h.5V29c-.18.6-.47 1.06-.95 1.06zm1.13.4h.59a4.43 4.43 0 0 1-.11-.95v-2.84a1.35 1.35 0 0 0-1.46-1.51 1.54 1.54 0 0 0-1.23.53l.13.55a1.29 1.29 0 0 1 1.1-.54c.56 0 .81.32.81 1v.59h-.51a1.62 1.62 0 0 0-1.79 1.76c0 .95.55 1.51 1.24 1.51a1.2 1.2 0 0 0 1.08-.81 2.23 2.23 0 0 0 .15.71zm2.99-.4a.93.93 0 0 1-.93-.64v-2.67c.23-.56.59-1.06 1.05-1.06s.82.69.82 2.06c0 1.53-.38 2.31-.94 2.31zm0 .5c1 0 1.64-.94 1.64-2.84 0-1.51-.53-2.56-1.4-2.56-.58 0-.93.47-1.16 1l-.07-.86h-.57v6.82h.66v-2a1.13 1.13 0 0 0 .86.44zm3.06-2.79l1.6 2.69h.71l-1.66-2.78 1.5-2.42h-.61l-1.54 2.45v-2.45h-.67v5.2h.67v-2.69zm3.19.23h2.3c.16-1.85-.48-2.85-1.38-2.85s-1.57 1-1.57 2.7.56 2.71 1.67 2.71A1.5 1.5 0 0 0 30 30l-.16-.48a1.31 1.31 0 0 1-1.04.48c-.63 0-1.02-.66-1.03-2zm.92-2.33c.49 0 .83.55.77 1.83h-1.68c.06-1.23.41-1.82.91-1.82zm4.65.11v-.52h-2.89v.52h1.13v4.68h.66v-4.68h1.1z"/></svg>