<svg width="44" height="44" fill="none" xmlns="http://www.w3.org/2000/svg"><path d="M23.51 6h-3.02c-5.13 0-7.69 0-9.64 1.01a9 9 0 0 0-3.84 3.84C6 12.8 6 15.36 6 20.5v3.02c0 5.13 0 7.69 1.01 9.64A9 9 0 0 0 10.85 37c1.95 1 4.51 1 9.65 1h3.02c5.13 0 7.69 0 9.64-1.01A9 9 0 0 0 37 33.15c1-1.95 1-4.51 1-9.65v-3.02c0-5.13 0-7.69-1.01-9.64A9 9 0 0 0 33.15 7c-1.95-1-4.51-1-9.65-1z" fill="#DE3322"/><path fill-rule="evenodd" clip-rule="evenodd" d="M27.88 18.19l-1.89-1.55a5.82 5.82 0 0 0-3.27-1.17h-6.76c-1.1 0-2.5.6-3.24 1.32l-2.12 2.05c-.8.78-1.4 2.16-1.4 3.2v1.88c0 1.32 1.16 2.43 2.59 2.43h20.65c1.41 0 2.49-1.1 2.49-2.43v-1.87a2.69 2.69 0 0 0-2.36-2.64l-2.6-.33c-.62-.08-1.6-.5-2.1-.9zm1.84 2.8a6.25 6.25 0 0 1-1.6-.47 6.3 6.3 0 0 1-1.46-.85l-1.89-1.55a3.41 3.41 0 0 0-.96-.5 3.5 3.5 0 0 0-1.1-.23h-6.75c-.24 0-.61.07-1.02.24-.42.17-.72.38-.87.53h-.01l-2.12 2.05a3.1 3.1 0 0 0-.82 1.83v1.88c0 .08.03.2.16.32.12.11.3.2.5.2h20.66c.37 0 .57-.26.57-.52v-1.87c0-.35-.3-.69-.66-.73L29.71 21z" fill="#fff"/><path d="M15.92 28.66a3.13 3.13 0 1 1 0-6.27 3.13 3.13 0 1 1 0 6.27z" fill="#DE3322"/><path fill-rule="evenodd" clip-rule="evenodd" d="M14.7 25.47c0 .74.57 1.27 1.22 1.27s1.22-.53 1.22-1.27c0-.6-.53-1.17-1.22-1.17s-1.22.57-1.22 1.17zm-1.92 0a3.16 3.16 0 0 0 3.14 3.19 3.13 3.13 0 1 0 0-6.28 3.13 3.13 0 0 0-3.14 3.09z" fill="#fff"/><path d="M28.08 28.66a3.13 3.13 0 1 1 0-6.27 3.13 3.13 0 1 1 0 6.27z" fill="#DE3322"/><path fill-rule="evenodd" clip-rule="evenodd" d="M26.86 25.47c0 .74.57 1.27 1.22 1.27s1.22-.53 1.22-1.27c0-.6-.53-1.17-1.22-1.17s-1.22.57-1.22 1.17zm-1.92 0a3.16 3.16 0 0 0 3.14 3.19 3.13 3.13 0 1 0 0-6.28 3.13 3.13 0 0 0-3.14 3.09z" fill="#fff"/></svg>