<svg width="44" height="44" fill="none" xmlns="http://www.w3.org/2000/svg">
    <g clip-path="url(#clip0)">
        <path fill-rule="evenodd" clip-rule="evenodd"
              d="M7.32 20.95c-3.53 3.71-5.1 7.53-3.94 9.96C5.95 36.27 42.97 18.85 40.4 13.5c-1-2.1-5.33-3.39-10.84-3.01-1.3-.02-2.26-.34-3.28-.68l-.65-.21A13.05 13.05 0 0 0 10.16 16c-.23.44-.45.9-.67 1.36-.6 1.27-1.2 2.53-2 3.4a28.29 28.29 0 0 0-.17.18z"
              fill="#000"/>
        <path fill-rule="evenodd" clip-rule="evenodd"
              d="M26 30.74c10.27-4.83 16.4-13.33 14.73-16.8-1.67-3.48-11.67-2.86-21.94 1.98C8.53 20.75 1.9 27.96 3.56 31.43c1.66 3.48 12.18 4.14 22.44-.69z"
              fill="#07F"/>
        <g filter="url(#filter0_d)">
            <path fill-rule="evenodd" clip-rule="evenodd"
                  d="M25.7 29.17c4.86-2.29 8.15-5.47 7.36-7.12-.78-1.64-5.36-1.12-10.21 1.16-4.86 2.29-8.15 5.47-7.37 7.12.8 1.64 5.37 1.12 10.22-1.16z"
                  fill="#fff"/>
        </g>
        <path opacity=".4" fill-rule="evenodd" clip-rule="evenodd"
              d="M15.56 30.37l.08 6.17 13.5-.79 8.97-8.85-5.27-5.02-17.28 8.49z" fill="url(#paint0_linear)"/>
    </g>
    <defs>
        <filter id="filter0_d" x="-104.63" y="-98.91" width="257.81" height="250.19" filterUnits="userSpaceOnUse"
                color-interpolation-filters="sRGB">
            <feFlood flood-opacity="0" result="BackgroundImageFix"/>
            <feColorMatrix in="SourceAlpha" values="0 0 0 0 0 0 0 0 0 0 0 0 0 0 0 0 0 0 127 0"/>
            <feOffset/>
            <feGaussianBlur stdDeviation="60"/>
            <feColorMatrix values="0 0 0 0 1 0 0 0 0 1 0 0 0 0 1 0 0 0 0.6 0"/>
            <feBlend in2="BackgroundImageFix" result="effect1_dropShadow"/>
            <feBlend in="SourceGraphic" in2="effect1_dropShadow" result="shape"/>
        </filter>
        <linearGradient id="paint0_linear" x1="21.7" y1="28.74" x2="22.48" y2="33.27" gradientUnits="userSpaceOnUse">
            <stop stop-color="#fff"/>
            <stop offset="1" stop-color="#fff" stop-opacity=".01"/>
        </linearGradient>
        <clipPath id="clip0">
            <path fill="#fff" d="M0 0h44v44H0z"/>
        </clipPath>
    </defs>
</svg>